<?xml version="1.0" encoding="utf-8"?>
<!-- Generator: Adobe Illustrator 23.0.3, SVG Export Plug-In . SVG Version: 6.00 Build 0)  -->
<svg version="1.1" id="Layer_1" xmlns="http://www.w3.org/2000/svg" xmlns:xlink="http://www.w3.org/1999/xlink" x="0px" y="0px"
	 viewBox="0 0 1200 1200" enable-background="new 0 0 1200 1200" xml:space="preserve">
<g>
	<g>
		<path fill="#1B1E38" d="M536.932,62.376l59.643,0.645v0.067l0.602,0.001L600,63.057l2.822,0.031l0.602-0.001V63.02l59.644-0.645
			c21.961-0.499,43.924-0.772,65.881-1.545c43.917-1.292,87.83-3.083,131.724-6.227c-43.947-2.275-87.876-3.319-131.8-3.953
			c-21.963-0.433-43.921-0.428-65.881-0.639l-59.996-0.01L602.882,50L600,50.001L597.118,50l-0.113,0.001l-59.997,0.01
			c-21.96,0.211-43.919,0.206-65.882,0.639c-43.924,0.635-87.853,1.678-131.8,3.953c43.894,3.144,87.806,4.935,131.724,6.227
			C493.008,61.604,514.971,61.877,536.932,62.376z"/>
		<path fill="#1B1E38" d="M600,893.179c209.187,0.617,416.788-0.897,459.901-5.116c-6.106-36.29-29.789-51.848-63.459-53.203
			c-36.721-1.478-73.549-0.336-108.441-0.336c-6.52,7.632-11.188,13.095-19.105,22.361c0-14.817-0.05-30.554-0.05-39.036
			c21.76,1.53,54.182,0.532,80.133-0.37c17.479-0.608,36.855-0.663,58.117-0.526c15.217,0.098,27.558-12.291,27.36-27.507
			c0,0,14.577-129.574-87.511-129.574c0-26.755,0.488-49.839-0.137-72.893c-0.618-22.75,0.584-45.469-0.705-68.909
			c13.017-0.143,31.127,0.805,47.62,0.805c16.272,0,28.557-4.99,28.557-33.203c0-55.552,2.178-81.486-2.709-130.022
			c-2.062-20.489-18.531-36.533-39.07-38.03l-0.448-0.033c-14.471-1.987-27.46,2.121-42.656,0.035v-91.187
			c-7.091-5.646-14.068-11.199-22.817-18.164c-8.901-50.001-9.883-71.454-20.405-156.872c-12.858,17.139-14.487,28.04-13.394,76.209
			c1.139,55.516-1.197,68.517,0.164,77.401l-11.747,17.692v33.839c10.838,11.447,21.403,22.605,31.411,33.173
			c0.885,7.115,2.185,12.812,2.211,18.514c0.227,50.508-0.354,96.347,0.973,151.487c-1.327,36.118-1.327,59.453,1.98,131.122
			c0.957,20.711,0.075,41.401,1.679,64.811h-37.923v-46.494c0,0,7.359,14.906,25.258,35.645
			c0.862-52.831-3.126-98.635-4.679-158.613c-0.588-22.707-29.61-19.974-52.041-22.648c-38.22-4.557-76.6-1.068-114.985-1.697
			c-39.877-0.654-79.766-0.962-119.657-1.028v-0.031c-1.141,0.001-2.283,0.014-3.424,0.015c-1.141-0.001-2.283-0.014-3.424-0.015
			v0.031c-39.89,0.066-79.78,0.375-119.657,1.028c-38.385,0.629-76.765-2.86-114.985,1.697
			c-22.431,2.674-51.454-0.059-52.042,22.648c-1.553,59.978-5.541,105.782-4.679,158.613c17.899-20.738,25.259-35.645,25.259-35.645
			v46.494h-37.923c1.604-23.41,0.722-44.101,1.678-64.811c3.308-71.668,3.308-95.003,1.98-131.122
			c1.327-55.14,0.747-100.978,0.973-151.487c0.026-5.702,1.326-11.399,2.211-18.514c10.007-10.568,20.572-21.726,31.411-33.173
			v-33.839l-11.747-17.692c1.361-8.884-0.975-21.885,0.165-77.401c1.092-48.169-0.537-59.07-13.394-76.209
			c-10.523,85.418-11.505,106.871-20.405,156.872c-8.749,6.964-15.726,12.518-22.818,18.164v91.187
			c-15.197,2.087-28.185-2.022-42.656-0.035l-0.448,0.033c-20.538,1.496-37.008,17.541-39.07,38.03
			c-4.886,48.536-2.708,74.47-2.708,130.022c0,28.213,12.285,33.203,28.556,33.203c16.493,0,34.602-0.948,47.62-0.805
			c-1.288,23.44-0.087,46.159-0.704,68.909c-0.625,23.054-0.137,46.138-0.137,72.893c-100.413,0-87.51,129.574-87.51,129.574
			c-0.199,15.216,12.142,27.605,27.359,27.507c21.262-0.137,40.638-0.082,58.117,0.526c25.951,0.902,58.372,1.901,80.133,0.37
			c0,8.482-0.051,24.218-0.051,39.036c-7.916-9.266-12.585-14.729-19.104-22.361c-34.891,0-71.72-1.142-108.441,0.336
			c-33.67,1.356-57.353,16.913-63.459,53.203C183.211,892.281,390.813,893.795,600,893.179z M938.931,347.795
			c8.794-0.82,19.807-0.306,30.001-0.186c8.558,0.101,15.604,6.762,16.121,15.304c3.477,57.497,3.034,80.542-1.008,112.629
			c-1.388,11.012-6.471,15.622-14.991,15.389c-11.217-0.306-20.75,0.121-30.123-0.86V347.795z M856.118,736.309
			c4.489-17.984,20.271-30.055,37.623-30.055h58.367c0,0,43.176-3.861,43.176,62.372c0,7.489-5.651,13.548-12.631,13.579
			c-29.197,0.131-59.149-0.363-88.128-0.147c-15.075,0.112-28.968-8.949-35.59-23.481
			C855.088,750.138,854.195,744.007,856.118,736.309z M230.946,490.933c-8.519,0.232-13.603-4.377-14.99-15.389
			c-4.043-32.087-4.485-55.132-1.009-112.629c0.516-8.543,7.563-15.203,16.121-15.304c10.194-0.12,21.207-0.634,30.002,0.186
			v142.277C251.697,491.054,242.163,490.626,230.946,490.933z M341.048,758.577c-6.654,14.531-20.613,23.593-35.76,23.481
			c-29.119-0.216-59.214,0.278-88.552,0.147c-7.014-0.031-12.692-6.09-12.692-13.579c0-66.738,39.655-62.372,39.655-62.372h62.375
			c17.436,0,33.292,12.071,37.804,30.055C345.81,744.007,344.912,750.138,341.048,758.577z M386.081,528.47
			c6.49-6.994,13.861-13.172,22.78-21.393c62.375,0,124.992,0.028,187.715,0.028v0.001c1.142,0,2.282-0.001,3.424-0.001
			c1.142,0,2.281,0.001,3.424,0.001v-0.001c62.723,0,125.34-0.028,187.714-0.028c8.919,8.222,16.29,14.399,22.78,21.393
			c1.835,1.977,1.095,6.344,1.748,11.19H603.424h-6.849H384.333C384.987,534.813,384.247,530.447,386.081,528.47z M404.625,566.691
			h191.951h6.849h191.951c8.22,9.141,15.748,17.513,27.416,30.488H603.424h-6.849H377.209
			C388.877,584.204,396.405,575.832,404.625,566.691z M396.697,624.061h199.878h6.849h199.879
			c5.551,8.69,11.103,17.384,19.718,30.874H603.424h-6.849H376.979C385.594,641.444,391.147,632.751,396.697,624.061z
			 M398.43,681.916h198.146h6.849H801.57c4.911,5.246,33.459,33.821,25.91,33.956c-22.232,0.397-43.579,0-54.154,0
			c-61.791-0.011-116.18-0.014-169.901-0.015c-2.281,0-4.565,0-6.849,0c-53.721,0.001-108.11,0.004-169.902,0.015
			c-10.575,0-31.922,0.397-54.153,0C364.972,715.737,393.519,687.162,398.43,681.916z M547.821,773.969
			c-18.169-0.482-36.34-0.746-54.507-1.493c-36.335-1.248-72.666-2.979-108.981-6.017c36.359-2.198,72.703-3.207,109.044-3.82
			c18.171-0.418,36.339-0.413,54.507-0.617l49.638-0.01l0.094-0.001l2.385,0.001l2.384-0.001l0.094,0.001l49.638,0.01
			c18.168,0.204,36.335,0.199,54.507,0.617c36.34,0.613,72.684,1.622,109.044,3.82c-36.316,3.038-72.647,4.769-108.981,6.017
			c-18.167,0.747-36.337,1.011-54.507,1.493l-49.346,0.623v0.064l-0.498,0.001l-2.335-0.03l-2.335,0.03l-0.498-0.001v-0.064
			L547.821,773.969z M397.895,846.565c-16.418,0.007-29.887-4.752-29.887-28.135c21.47,0.035,124.391,0.051,231.992-0.031
			c107.601,0.082,210.522,0.066,231.992,0.031c0,23.383-13.469,28.142-29.887,28.135c-68.318-0.029-135.227-0.02-202.105-0.005
			C533.121,846.545,466.213,846.535,397.895,846.565z"/>
		<path fill="#1B1E38" d="M344.754,235.578c1.849,8.707,9.625,14.874,18.525,14.716c79.667-1.418,158.5-2.362,236.721-2.473
			c78.221,0.111,157.053,1.056,236.721,2.473c8.899,0.158,16.675-6.009,18.524-14.716l7.968-37.525
			c0.27-1.269,0.406-2.563,0.406-3.861v-81.917H603.424h-6.849H336.381v81.917c0,1.298,0.136,2.592,0.405,3.861L344.754,235.578z
			 M487.037,140.903c19.835-0.334,39.667-0.33,59.499-0.493l54.184-0.008l0.102-0.001l2.603,0l2.603,0l0.102,0.001l54.183,0.008
			c19.833,0.163,39.664,0.159,59.499,0.493c39.668,0.49,79.341,1.295,119.029,3.052c-39.641,2.427-79.299,3.81-118.961,4.807
			c-19.829,0.597-39.664,0.808-59.498,1.193l-53.864,0.498v0.051l-0.544,0.001l-2.549-0.024l-2.549,0.024l-0.544-0.001v-0.051
			l-53.865-0.498c-19.834-0.385-39.668-0.596-59.498-1.193c-39.662-0.997-79.32-2.38-118.961-4.807
			C407.697,142.198,447.369,141.392,487.037,140.903z"/>
		<path fill="#1B1E38" d="M1061.977,909.486H907.283c-23.777,0-43.982,17.384-47.529,40.895c-3.271,21.68-6.622,43.837-6.622,43.614
			c-0.588,0.014-1.067,0.027-1.557,0.04c0.004-30.432,0.44-58.383-0.042-84.512H704.803c-1.318,19.484-0.735,45.458-1.66,77.729
			l-3.25-0.804c-32.45,0.233-66.423,0.542-99.893,0.816c-33.47-0.275-67.444-0.583-99.893-0.816l-3.25,0.804
			c-0.924-32.271-0.342-58.246-1.66-77.729H348.468c-0.485,26.244-0.042,54.321-0.042,84.908c-0.374,0-0.674,0-0.939,0.001
			c0.935-0.028,0.909-0.021,0.161-0.361c-0.087-0.044-0.161-0.074-0.161-0.074c0,0.218-3.023-20.95-6.044-42.151
			c-3.462-24.302-24.271-42.357-48.818-42.357H138.024c-2.581,11.362-3.501,18.257-3.357,44.224
			c0.191,34.555,0.019,53.999,0.515,88.532c0.33,22.978,0.356,47.992,0.352,71.353c-0.002,12.118,7.572,22.994,19.003,27.016
			c33.413,11.756,77.339,12.428,112.772,2.265c11.991-3.439,20.433-14.263,20.748-26.733c0.667-26.449,0.223-53.571,1.65-80.204
			c0.012,0,0.026,0,0.038,0l0.482-86.634l16.484,86.703l293.29,0.616c144.109,0.012,272.549-0.128,293.628-0.079l-2.127-0.526
			c1.026-0.008,2.004-0.015,3.001-0.023l16.747-86.691l0.998,170.167c1.589,11.031,9.537,20.277,20.446,23.405
			c35.46,10.17,79.425,9.49,112.846-2.292c11.401-4.019,18.929-14.901,18.927-26.989c-0.004-23.36,0.022-48.375,0.351-71.353
			c0.496-34.533,0.324-53.977,0.515-88.532C1065.478,927.743,1064.558,920.848,1061.977,909.486z M851.574,994.429
			c0-0.008,0-0.016,0-0.024c0.789,0.012,1.414,0.021,1.558,0.027C852.772,994.43,852.274,994.429,851.574,994.429z"/>
		<path fill="#1B1E38" d="M319.055,423.677v25.565c38.424-11.636,180.709-11.746,268.876-11.994v-22.802l-56.66-0.008
			C507.46,414.242,384.842,413.364,319.055,423.677z"/>
		<path fill="#1B1E38" d="M587.931,268.486c-72.496,1.26-144.912-0.225-217.231,5.801c-18.123,1.51-35.683,9.799-51.646,14.418
			v125.878c44.68-6.986,92.416-9.322,138.503-10.48c24.539-0.739,49.084-1,73.628-1.476l56.745-0.524V268.486z"/>
		<path fill="#1B1E38" d="M880.945,288.705c-15.963-4.618-33.522-12.907-51.646-14.418c-72.319-6.026-144.734-4.542-217.23-5.801
			v133.609l57.576,0.532c24.544,0.476,49.09,0.737,73.628,1.476c45.801,1.151,93.23,3.465,137.672,10.35V288.705z"/>
		<path fill="#1B1E38" d="M669.56,414.438l-57.491,0.008v22.802c88.167,0.248,230.453,0.358,268.876,11.994V423.55
			C814.963,413.373,693.272,414.243,669.56,414.438z"/>
		<rect x="516.93" y="909.486" fill="#1B1E38" width="169.479" height="58.872"/>
		<path fill="#1B1E38" d="M274.453,716.397v55.314h34.628c0,0,20.318-2.061,20.318-28.734S293.718,715.064,274.453,716.397z"/>
		<path fill="#1B1E38" d="M890.487,771.711h34.628v-55.314c-19.264-1.333-54.946-0.092-54.946,26.58
			S890.487,771.711,890.487,771.711z"/>
		<path fill="#1B1E38" d="M218.648,761.592c0,5.464,4.142,9.883,9.259,9.906c10.515,0.047,21.163-0.017,31.795-0.074v-55.333
			h-12.125C247.577,716.091,218.648,712.906,218.648,761.592z"/>
		<path fill="#1B1E38" d="M971.609,771.498c5.117-0.023,9.259-4.443,9.259-9.906c0-48.686-28.929-45.501-28.929-45.501h-12.124
			v55.333C950.445,771.481,961.094,771.545,971.609,771.498z"/>
	</g>
</g>
</svg>
